<svg xmlns="http://www.w3.org/2000/svg" viewBox="0 0 588.39 684.98"><defs><style>.cls-1,.cls-2{fill:#fff;}.cls-2{font-size:30.49px;font-family:Qanelas-SemiBold, Qanelas;font-weight:700;letter-spacing:0.31em;}.cls-3{letter-spacing:0.3em;}.cls-4{letter-spacing:0.28em;}.cls-5{letter-spacing:0.31em;}.cls-6{letter-spacing:0.26em;}.cls-7{letter-spacing:0.31em;}</style></defs><title>Asset 7</title><g id="Layer_2" data-name="Layer 2"><g id="Layer_1-2" data-name="Layer 1"><path class="cls-1" d="M287.84,475c-5.33-7.89-43.28-51.8-57.15-73.28a12.81,12.81,0,0,1-2.11-7.69c1.67-14.76,3.79-23.88,5.73-38.61,2.57-19.51,5.08-39,7.66-58.53,1.76-13.26,3.61-26.5,5.39-39.75,2.15-16,4.24-32,6.43-48,3.72-27.22,7.54-54.43,11.24-81.66,1.22-9,2.19-18.05,3.31-27.35h38.55c1.77,12.41,3.57,24.7,5.25,37q3.08,22.63,6,45.28c2.58,19.88,5,39.78,7.68,59.65,1.82,13.62,4,27.2,5.79,40.82,2.62,19.69,5,39.41,7.6,59.11,1.75,13.25,3.73,26.48,5.57,39.72,1.28,6.59,1.28,6.59,2.38,13.2a7.62,7.62,0,0,1-1.13,4.57C324,428.6,311.29,445.94,287.84,475Z"/><path class="cls-1" d="M287.72,0C301.53,13.43,315,26.38,328.19,39.59c1,1,1.07,4.26.23,5.67-6.67,11.24-13.52,22.38-20.71,33.28a9.58,9.58,0,0,1-6.7,3.53c-9.12.42-18.29.41-27.41,0a8,8,0,0,1-5.57-3.2c-7.44-11.34-14.5-22.94-21.52-34.56-.65-1.07-.72-3.51,0-4.24C260,26.8,273.54,13.72,287.72,0Z"/><path class="cls-1" d="M89.28,597.38c0,18.48-13.78,32.7-32.4,32.7H2.33V527.44H45c17.6,0,30.35,11.88,30.35,27.71a23.11,23.11,0,0,1-3.81,12.46A33,33,0,0,1,89.28,597.38Zm-66.71-51v17.3H52a10.78,10.78,0,0,0,3.08-7.48c0-5.72-3.81-9.82-10.12-9.82Zm46.48,50c0-8.36-4.84-14.81-14.66-14.81H22.57v29.62H54.24C64.21,611.17,69,604.57,69,596.36Z"/><path class="cls-1" d="M100.9,576.71h23.2v18.18H100.9Z"/><path class="cls-1" d="M217.63,527.44V630.08H197.4V587h-34v43.11H143.15V527.44h20.23v40.18h34V527.44Z"/><path class="cls-1" d="M288.16,611.6h-39.3L243,630.08H221.15l34.9-102.64h25.07L316,630.08H294Zm-6-18.91-13.63-42.81-13.64,42.81Z"/><path class="cls-1" d="M314.89,578.76c0-30.06,22.29-53.37,53.37-53.37,24.34,0,45,16,49.85,38.71H396.85c-3.67-11.58-15.1-19.06-28.59-19.06C348.17,545,335,559,335,578.76s13.2,33.58,33.29,33.58c13.49,0,24.93-7.33,28.59-18.91h21.26c-4.84,22.58-25.37,38.71-49.85,38.71C337.18,632.13,314.89,608.67,314.89,578.76Z"/><path class="cls-1" d="M481,630.08l-36.66-48.24v48.24H424.15V527.44h20.23v45.31l35.19-45.31h23.31l-38,50,39.44,52.64Z"/><path class="cls-1" d="M504.36,598.41h20.23c0,9.38,5.86,13.93,17.3,13.93,10.26,0,15.1-4.4,15.1-10.26,0-7.33-8.21-10.56-18-13.93-14.66-5.28-32.7-11.14-32.7-32.84,0-19.65,16.28-29.91,33.28-29.91,17.89,0,34.6,10.41,34.6,33.14H554.06c0-8.94-5.28-13.49-14.52-13.49-8.36,0-13.2,4.25-13.2,10.26,0,7.48,7,10.85,16.57,14.37,14.81,5.28,34.16,10.71,34.16,32.4,0,19.65-16.13,30.06-35.19,30.06C521.66,632.13,504.36,621.58,504.36,598.41Z"/><path class="cls-1" d="M63.36,367.78V299.55c0-22.94-10.18-28.91-27.34-29a9,9,0,0,1-9.08-9V222.73a9,9,0,0,1,9.08-9c17.16-.07,27.34-6,27.34-29V116.54c0-59,30.42-90.36,96.81-85.75V88c-24-2.77-37.34,1.84-37.34,28.58v68.23c0,28.12-9.22,47-27.66,57.16,18.44,10.6,27.66,29.5,27.66,57.63v68.23c0,26.74,13.37,31.35,37.34,28.58v57.16C93.79,458.14,63.36,426.79,63.36,367.78Z"/><path class="cls-1" d="M419.71,396.36c23.51,2.76,37.34-1.84,37.34-28.58V299.55c0-28.12,8.76-47,27.2-57.63-18.44-10.14-27.2-29-27.2-57.16V116.54C457,89.8,443.22,85.19,419.71,88V30.79c65.92-4.61,96.81,26.74,96.81,85.75v68.23c0,22.41,9.4,28.63,25.74,29a10.5,10.5,0,0,1,10.22,10.53v35.79a10.5,10.5,0,0,1-10.22,10.53c-16.35.34-25.74,6.55-25.74,29v68.23c0,59-30.89,90.35-96.81,85.75Z"/><text class="cls-2" transform="translate(0 677.2)">IIIC <tspan class="cls-3" x="101.39" y="0">B</tspan><tspan x="131.57" y="0">USINESS H</tspan><tspan class="cls-4" x="355.88" y="0">A</tspan><tspan class="cls-5" x="384.08" y="0">CK</tspan><tspan class="cls-6" x="444.47" y="0">A</tspan><tspan class="cls-7" x="472.09" y="0">THON</tspan></text></g></g></svg>