<svg xmlns="http://www.w3.org/2000/svg" viewBox="0 0 717.12 157.7"><defs><style>.cls-1,.cls-2{fill:#fff;}.cls-2{font-size:26.4px;font-family:Qanelas-SemiBold, Qanelas;font-weight:700;letter-spacing:0.31em;}.cls-3{letter-spacing:0.31em;}.cls-4{letter-spacing:0.31em;}.cls-5{letter-spacing:0.28em;}.cls-6{letter-spacing:0.26em;}</style></defs><title>Asset 8</title><g id="Layer_2" data-name="Layer 2"><g id="Layer_1-2" data-name="Layer 1"><path class="cls-1" d="M284.82,77c0,16-11.94,28.32-28.07,28.32H209.51V16.45h37c15.24,0,26.29,10.29,26.29,24a20,20,0,0,1-3.3,10.8A28.58,28.58,0,0,1,284.82,77ZM227,32.84v15h25.53a9.34,9.34,0,0,0,2.67-6.48c0-5-3.3-8.51-8.76-8.51Zm40.26,43.31c0-7.24-4.19-12.83-12.7-12.83H227V89h27.43C263.1,89,267.29,83.25,267.29,76.14Z"/><path class="cls-1" d="M294.88,59.12H315V74.87H294.88Z"/><path class="cls-1" d="M396,16.45v88.9H378.46V68H349v37.34H331.47V16.45H349v34.8h29.46V16.45Z"/><path class="cls-1" d="M457.08,89.35H423l-5.08,16H399l30.23-88.9H451l30.22,88.9H462.16ZM451.87,73,440.06,35.88,428.25,73Z"/><path class="cls-1" d="M480.23,60.9c0-26,19.3-46.23,46.23-46.23,21.08,0,39,13.84,43.18,33.53H551.22c-3.17-10-13.08-16.51-24.76-16.51-17.4,0-28.83,12.06-28.83,29.21S509.06,90,526.46,90c11.68,0,21.59-6.35,24.76-16.38h18.41c-4.19,19.56-22,33.53-43.18,33.53C499.53,107.13,480.23,86.81,480.23,60.9Z"/><path class="cls-1" d="M624.14,105.35,592.39,63.57v41.78H574.87V16.45h17.53V55.7l30.48-39.24h20.19L610.17,59.76l34.16,45.59Z"/><path class="cls-1" d="M644.34,77.92h17.53c0,8.13,5.08,12.07,15,12.07,8.89,0,13.08-3.81,13.08-8.89,0-6.35-7.11-9.14-15.62-12.07C661.61,64.46,646,59.38,646,40.58c0-17,14.1-25.91,28.83-25.91,15.49,0,30,9,30,28.7h-17.4c0-7.75-4.57-11.68-12.57-11.68-7.24,0-11.43,3.68-11.43,8.89,0,6.48,6.1,9.4,14.35,12.45,12.83,4.57,29.59,9.27,29.59,28.07,0,17-14,26-30.48,26C659.32,107.13,644.34,98,644.34,77.92Z"/><text class="cls-2" transform="translate(207.48 146.17)">IIIC <tspan class="cls-3" x="87.82" y="0">B</tspan><tspan class="cls-4" x="113.96" y="0">USINESS H</tspan><tspan class="cls-5" x="308.25" y="0">A</tspan><tspan class="cls-4" x="332.67" y="0">CK</tspan><tspan class="cls-6" x="384.98" y="0">A</tspan><tspan class="cls-4" x="408.9" y="0">THON</tspan></text><path class="cls-1" d="M86.62,157.7c-1.77-2.62-14.37-17.2-19-24.33a4.25,4.25,0,0,1-.7-2.55c.56-4.9,1.26-7.93,1.9-12.82.85-6.48,1.69-13,2.54-19.43.58-4.4,1.2-8.8,1.79-13.2.72-5.31,1.41-10.63,2.13-15.95,1.24-9,2.5-18.07,3.73-27.11.41-3,.73-6,1.1-9.08h12.8c.59,4.12,1.19,8.2,1.74,12.28q1,7.51,2,15c.86,6.6,1.67,13.21,2.55,19.8.6,4.52,1.32,9,1.92,13.55.87,6.54,1.66,13.09,2.52,19.62.58,4.4,1.24,8.79,1.85,13.19.42,2.19.42,2.19.79,4.38a2.53,2.53,0,0,1-.38,1.52C98.63,142.3,94.41,148.06,86.62,157.7Z"/><path class="cls-1" d="M86.58,0C91.17,4.46,95.63,8.76,100,13.15a2,2,0,0,1,.08,1.88c-2.22,3.73-4.49,7.43-6.88,11.05A3.18,3.18,0,0,1,91,27.25c-3,.14-6.07.13-9.1,0A2.66,2.66,0,0,1,80,26.18c-2.47-3.77-4.82-7.62-7.14-11.47a1.52,1.52,0,0,1,0-1.41C77.36,8.9,81.87,4.55,86.58,0Z"/><path class="cls-1" d="M12.09,122.11V99.46c0-7.62-3.38-9.6-9.08-9.62a3,3,0,0,1-3-3V73.95a3,3,0,0,1,3-3c5.7,0,9.08-2,9.08-9.62V38.69c0-19.59,10.1-30,32.14-28.47v19c-8-.92-12.4.61-12.4,9.49V61.34c0,9.34-3.06,15.61-9.18,19,6.12,3.52,9.18,9.8,9.18,19.13v22.65c0,8.88,4.44,10.41,12.4,9.49v19C22.19,152.11,12.09,141.7,12.09,122.11Z"/><path class="cls-1" d="M130.4,131.6c7.81.92,12.4-.61,12.4-9.49V99.46c0-9.34,2.91-15.61,9-19.13-6.12-3.37-9-9.64-9-19V38.69c0-8.88-4.59-10.41-12.4-9.49v-19c21.89-1.53,32.14,8.88,32.14,28.47V61.34c0,7.44,3.12,9.51,8.55,9.62a3.49,3.49,0,0,1,3.39,3.5V86.34a3.49,3.49,0,0,1-3.39,3.5c-5.43.11-8.55,2.18-8.55,9.62v22.65c0,19.59-10.25,30-32.14,28.47Z"/></g></g></svg>