<svg xmlns="http://www.w3.org/2000/svg" viewBox="0 0 692.36 157.7"><defs><style>.cls-1{fill:#fff;}</style></defs><title>Asset 14</title><g id="Layer_2" data-name="Layer 2"><g id="Layer_1-2" data-name="Layer 1"><path class="cls-1" d="M282.5,75.31c0,15.52-11.58,27.47-27.23,27.47H209.44V16.54h35.85c14.79,0,25.5,10,25.5,23.29a19.42,19.42,0,0,1-3.2,10.47A27.73,27.73,0,0,1,282.5,75.31ZM226.45,32.44V47h24.76a9.06,9.06,0,0,0,2.59-6.28c0-4.8-3.2-8.25-8.5-8.25Zm39.05,42c0-7-4.07-12.44-12.32-12.44H226.45V86.89h26.61C261.43,86.89,265.5,81.34,265.5,74.45Z"/><path class="cls-1" d="M292.26,57.94h19.49V73.21H292.26Z"/><path class="cls-1" d="M390.35,16.54v86.24h-17V66.56H344.76v36.22h-17V16.54h17V50.3h28.58V16.54Z"/><path class="cls-1" d="M449.61,87.26h-33l-4.93,15.52H393.3l29.32-86.24h21.07L473,102.78H454.53Zm-5.05-15.89-11.46-36-11.46,36Z"/><path class="cls-1" d="M472.06,59.66c0-25.25,18.73-44.84,44.84-44.84,20.45,0,37.82,13.43,41.89,32.52H540.93c-3.08-9.73-12.69-16-24-16-16.88,0-28,11.7-28,28.33s11.09,28.21,28,28.21c11.33,0,20.94-6.16,24-15.89h17.86c-4.07,19-21.31,32.52-41.89,32.52C490.79,104.51,472.06,84.8,472.06,59.66Z"/><path class="cls-1" d="M611.67,102.78l-30.8-40.53v40.53h-17V16.54h17V54.61l29.57-38.07H630l-31.91,42,33.14,44.23Z"/><path class="cls-1" d="M631.26,76.17h17c0,7.88,4.93,11.7,14.54,11.7,8.62,0,12.69-3.7,12.69-8.62,0-6.16-6.9-8.87-15.15-11.7C648,63.11,632.86,58.18,632.86,40c0-16.51,13.68-25.13,28-25.13,15,0,29.08,8.75,29.08,27.84H673c0-7.52-4.44-11.33-12.2-11.33-7,0-11.09,3.57-11.09,8.62,0,6.28,5.91,9.12,13.92,12.07,12.44,4.44,28.7,9,28.7,27.23,0,16.51-13.55,25.26-29.57,25.26C645.8,104.51,631.26,95.64,631.26,76.17Z"/><path class="cls-1" d="M220.82,140.8h-8.29l-1.34,4h-3.56l7.09-19.94h3.93l7.07,19.94h-3.53Zm-1.05-3.08-3.08-9.12-3.11,9.12Z"/><path class="cls-1" d="M266.51,131.29A6.41,6.41,0,0,1,260,137.7H256v7.12h-3.28V124.88H260A6.4,6.4,0,0,1,266.51,131.29Zm-3.28,0A3.22,3.22,0,0,0,260,128H256v6.67H260A3.24,3.24,0,0,0,263.24,131.29Z"/><path class="cls-1" d="M284.6,137.55H281.5v7.26h-3.28V124.88h7.41a6.33,6.33,0,0,1,2.48,12.19l6.5,7.75h-3.9Zm-3.11-2.93h4.13a3.34,3.34,0,0,0,0-6.67H281.5Z"/><path class="cls-1" d="M303.18,134.85a10.34,10.34,0,1,1,10.34,10.34A10.27,10.27,0,0,1,303.18,134.85Zm17.41,0a7.07,7.07,0,1,0-7.07,7.15A7,7,0,0,0,320.58,134.85Z"/><path class="cls-1" d="M353.66,134.85c0,5.55-4,10-9.54,10h-8.4V124.88h8.4C349.61,124.88,353.66,129.26,353.66,134.85Zm-3.16,0c0-4-2.59-6.84-6.38-6.84H339v13.67h5.13C347.9,141.68,350.5,138.78,350.5,134.85Z"/><path class="cls-1" d="M365.05,138.78v-13.9h3.28v13.7c0,2.19,1.34,3.42,3.85,3.42s3.85-1.22,3.85-3.42v-13.7h3.28v13.9c0,4.16-3.16,6.41-7.12,6.41S365.05,142.94,365.05,138.78Z"/><path class="cls-1" d="M390.86,134.85a10.15,10.15,0,0,1,10.43-10.34,9.63,9.63,0,0,1,9.54,7.21h-3.45a6.3,6.3,0,0,0-6.1-4,7.15,7.15,0,1,0,0,14.3,6.28,6.28,0,0,0,6.1-4h3.45a9.64,9.64,0,0,1-9.54,7.21A10.15,10.15,0,0,1,390.86,134.85Z"/><path class="cls-1" d="M433.51,128h-5v16.81h-3.28V128h-5.07v-3.13h13.39Z"/><path class="cls-1" d="M474.88,124.88v19.94H471.6v-8.69h-7.55v8.69h-3.28V124.88h3.28V133h7.55v-8.12Z"/><path class="cls-1" d="M499.07,140.8h-8.29l-1.34,4h-3.56L493,124.88h3.93L504,144.82h-3.53ZM498,137.72l-3.08-9.12-3.11,9.12Z"/><path class="cls-1" d="M513.08,134.85a10.15,10.15,0,0,1,10.43-10.34,9.63,9.63,0,0,1,9.54,7.21h-3.45a6.3,6.3,0,0,0-6.1-4,7.15,7.15,0,1,0,0,14.3,6.28,6.28,0,0,0,6.1-4h3.45a9.64,9.64,0,0,1-9.54,7.21A10.15,10.15,0,0,1,513.08,134.85Z"/><path class="cls-1" d="M555.61,144.82l-7.86-9.49v9.49h-3.28V124.88h3.28v8.92l7.58-8.92h3.9l-8.09,9.71,8.38,10.23Z"/><path class="cls-1" d="M581.85,140.8h-8.29l-1.34,4h-3.56l7.09-19.94h3.93l7.07,19.94h-3.53Zm-1.05-3.08-3.08-9.12-3.11,9.12Z"/><path class="cls-1" d="M608.15,128h-5v16.81h-3.28V128h-5.07v-3.13h13.39Z"/><path class="cls-1" d="M633.53,124.88v19.94h-3.28v-8.69h-7.55v8.69h-3.28V124.88h3.28V133h7.55v-8.12Z"/><path class="cls-1" d="M645.38,134.85a10.34,10.34,0,1,1,10.34,10.34A10.27,10.27,0,0,1,645.38,134.85Zm17.41,0a7.07,7.07,0,1,0-7.07,7.15A7,7,0,0,0,662.79,134.85Z"/><path class="cls-1" d="M692.16,124.88v19.94H689.6l-8.4-13.53v13.53h-3.28V124.88h2.56l8.4,13.53V124.88Z"/><path class="cls-1" d="M86.62,157.7c-1.77-2.62-14.37-17.2-19-24.33a4.25,4.25,0,0,1-.7-2.55c.56-4.9,1.26-7.93,1.9-12.82.85-6.48,1.69-13,2.54-19.43.58-4.4,1.2-8.8,1.79-13.2.72-5.31,1.41-10.63,2.13-15.95,1.24-9,2.5-18.07,3.73-27.11.41-3,.73-6,1.1-9.08h12.8c.59,4.12,1.19,8.2,1.74,12.28q1,7.51,2,15c.86,6.6,1.67,13.21,2.55,19.8.6,4.52,1.32,9,1.92,13.55.87,6.54,1.66,13.09,2.52,19.62.58,4.4,1.24,8.79,1.85,13.19.42,2.19.42,2.19.79,4.38a2.53,2.53,0,0,1-.38,1.52C98.63,142.3,94.41,148.06,86.62,157.7Z"/><path class="cls-1" d="M86.58,0C91.17,4.46,95.63,8.76,100,13.15a2,2,0,0,1,.08,1.88c-2.22,3.73-4.49,7.43-6.88,11.05A3.18,3.18,0,0,1,91,27.25c-3,.14-6.07.13-9.1,0A2.66,2.66,0,0,1,80,26.18c-2.47-3.77-4.82-7.62-7.14-11.47a1.52,1.52,0,0,1,0-1.41C77.36,8.9,81.87,4.55,86.58,0Z"/><path class="cls-1" d="M12.09,122.11V99.46c0-7.62-3.38-9.6-9.08-9.62a3,3,0,0,1-3-3V73.95a3,3,0,0,1,3-3c5.7,0,9.08-2,9.08-9.62V38.69c0-19.59,10.1-30,32.14-28.47v19c-8-.92-12.4.61-12.4,9.49V61.34c0,9.34-3.06,15.61-9.18,19,6.12,3.52,9.18,9.8,9.18,19.13v22.65c0,8.88,4.44,10.41,12.4,9.49v19C22.19,152.11,12.09,141.7,12.09,122.11Z"/><path class="cls-1" d="M130.4,131.6c7.81.92,12.4-.61,12.4-9.49V99.46c0-9.34,2.91-15.61,9-19.13-6.12-3.37-9-9.64-9-19V38.69c0-8.88-4.59-10.41-12.4-9.49v-19c21.89-1.53,32.14,8.88,32.14,28.47V61.34c0,7.44,3.12,9.51,8.55,9.62a3.49,3.49,0,0,1,3.39,3.5V86.34a3.49,3.49,0,0,1-3.39,3.5c-5.43.11-8.55,2.18-8.55,9.62v22.65c0,19.59-10.25,30-32.14,28.47Z"/></g></g></svg>