<svg xmlns="http://www.w3.org/2000/svg" viewBox="0 0 576.91 680.55"><defs><style>.cls-1{fill:#fff;}</style></defs><title>Asset 13</title><g id="Layer_2" data-name="Layer 2"><g id="Layer_1-2" data-name="Layer 1"><path class="cls-1" d="M287.67,475c-5.33-7.89-43.28-51.8-57.15-73.28a12.81,12.81,0,0,1-2.11-7.69c1.67-14.76,3.79-23.88,5.73-38.61,2.57-19.51,5.08-39,7.66-58.53,1.76-13.26,3.61-26.5,5.39-39.75,2.15-16,4.24-32,6.43-48,3.72-27.22,7.54-54.43,11.24-81.66,1.22-9,2.19-18.05,3.31-27.35h38.55c1.77,12.41,3.57,24.7,5.25,37q3.08,22.63,6,45.28c2.58,19.88,5,39.78,7.68,59.65,1.82,13.62,4,27.2,5.79,40.82,2.62,19.69,5,39.41,7.6,59.11,1.75,13.25,3.73,26.48,5.57,39.72,1.28,6.59,1.28,6.59,2.38,13.2a7.62,7.62,0,0,1-1.13,4.57C323.85,428.6,311.12,445.94,287.67,475Z"/><path class="cls-1" d="M287.55,0C301.36,13.43,314.82,26.38,328,39.59c1,1,1.07,4.26.23,5.67-6.67,11.24-13.52,22.38-20.71,33.28a9.58,9.58,0,0,1-6.7,3.53c-9.12.42-18.29.41-27.41,0a8,8,0,0,1-5.57-3.2c-7.44-11.34-14.5-22.94-21.52-34.56-.65-1.07-.72-3.51,0-4.24C259.79,26.8,273.37,13.72,287.55,0Z"/><path class="cls-1" d="M89.11,597.38c0,18.48-13.78,32.7-32.4,32.7H2.16V527.44H44.83c17.6,0,30.35,11.88,30.35,27.71a23.11,23.11,0,0,1-3.81,12.46A33,33,0,0,1,89.11,597.38Zm-66.71-51v17.3H51.87a10.78,10.78,0,0,0,3.08-7.48c0-5.72-3.81-9.82-10.12-9.82Zm46.48,50c0-8.36-4.84-14.81-14.66-14.81H22.4v29.62H54.07C64,611.17,68.88,604.57,68.88,596.36Z"/><path class="cls-1" d="M100.73,576.71h23.2v18.18h-23.2Z"/><path class="cls-1" d="M217.46,527.44V630.08H197.23V587h-34v43.11H143V527.44h20.23v40.18h34V527.44Z"/><path class="cls-1" d="M288,611.6H248.7l-5.86,18.48H221l34.9-102.64H281l34.89,102.64h-22Zm-6-18.91-13.63-42.81-13.64,42.81Z"/><path class="cls-1" d="M314.72,578.76c0-30.06,22.29-53.37,53.37-53.37,24.34,0,45,16,49.85,38.71H396.68C393,552.52,381.58,545,368.09,545,348,545,334.81,559,334.81,578.76s13.2,33.58,33.29,33.58c13.49,0,24.93-7.33,28.59-18.91h21.26c-4.84,22.58-25.37,38.71-49.85,38.71C337,632.13,314.72,608.67,314.72,578.76Z"/><path class="cls-1" d="M480.87,630.08l-36.66-48.24v48.24H424V527.44h20.23v45.31l35.19-45.31h23.31l-38,50,39.44,52.64Z"/><path class="cls-1" d="M504.19,598.41h20.23c0,9.38,5.86,13.93,17.3,13.93,10.26,0,15.1-4.4,15.1-10.26,0-7.33-8.21-10.56-18-13.93-14.66-5.28-32.7-11.14-32.7-32.84,0-19.65,16.28-29.91,33.28-29.91,17.89,0,34.6,10.41,34.6,33.14H553.89c0-8.94-5.28-13.49-14.52-13.49-8.36,0-13.2,4.25-13.2,10.26,0,7.48,7,10.85,16.57,14.37,14.81,5.28,34.16,10.71,34.16,32.4,0,19.65-16.13,30.06-35.19,30.06C521.49,632.13,504.19,621.58,504.19,598.41Z"/><path class="cls-1" d="M63.19,367.78V299.55c0-22.94-10.18-28.91-27.34-29a9,9,0,0,1-9.08-9V222.73a9,9,0,0,1,9.08-9c17.16-.07,27.34-6,27.34-29V116.54c0-59,30.42-90.36,96.81-85.75V88c-24-2.77-37.34,1.84-37.34,28.58v68.23c0,28.12-9.22,47-27.66,57.16,18.44,10.6,27.66,29.5,27.66,57.63v68.23c0,26.74,13.37,31.35,37.34,28.58v57.16C93.62,458.14,63.19,426.79,63.19,367.78Z"/><path class="cls-1" d="M419.54,396.36c23.51,2.76,37.34-1.84,37.34-28.58V299.55c0-28.12,8.76-47,27.2-57.63-18.44-10.14-27.2-29-27.2-57.16V116.54C456.88,89.8,443,85.19,419.54,88V30.79c65.92-4.61,96.81,26.74,96.81,85.75v68.23c0,22.41,9.4,28.63,25.74,29a10.5,10.5,0,0,1,10.22,10.53v35.79a10.5,10.5,0,0,1-10.22,10.53c-16.35.34-25.74,6.55-25.74,29v68.23c0,59-30.89,90.35-96.81,85.75Z"/><path class="cls-1" d="M15.7,675.33H5.83l-1.59,4.78H0l8.44-23.73h4.68l8.41,23.73h-4.2Zm-1.25-3.66-3.66-10.85-3.7,10.85Z"/><path class="cls-1" d="M70.08,664a7.63,7.63,0,0,1-7.7,7.63H57.54v8.48h-3.9V656.38h8.75A7.61,7.61,0,0,1,70.08,664Zm-3.9,0a3.83,3.83,0,0,0-3.8-4H57.54V668h4.85A3.85,3.85,0,0,0,66.18,664Z"/><path class="cls-1" d="M91.61,671.46h-3.7v8.65H84V656.38h8.81a7.54,7.54,0,0,1,2.95,14.51l7.73,9.22H98.87ZM87.92,668h4.92a4,4,0,0,0,0-7.93H87.92Z"/><path class="cls-1" d="M113.72,668.24A12.31,12.31,0,1,1,126,680.55,12.22,12.22,0,0,1,113.72,668.24Zm20.72,0a8.41,8.41,0,1,0-8.41,8.51A8.28,8.28,0,0,0,134.44,668.24Z"/><path class="cls-1" d="M173.8,668.24c0,6.61-4.81,11.87-11.36,11.87h-10V656.38h10C169,656.38,173.8,661.6,173.8,668.24Zm-3.76,0c0-4.71-3.09-8.14-7.59-8.14h-6.1v16.27h6.1C167,676.38,170,672.92,170,668.24Z"/><path class="cls-1" d="M187.36,672.92V656.38h3.9v16.31c0,2.61,1.59,4.07,4.58,4.07s4.58-1.46,4.58-4.07V656.38h3.9v16.55c0,5-3.76,7.63-8.48,7.63S187.36,677.87,187.36,672.92Z"/><path class="cls-1" d="M218.08,668.24a12.08,12.08,0,0,1,12.41-12.31,11.46,11.46,0,0,1,11.36,8.58h-4.1a7.5,7.5,0,0,0-7.26-4.78,8.51,8.51,0,0,0,0,17,7.47,7.47,0,0,0,7.26-4.78h4.1a11.47,11.47,0,0,1-11.36,8.58A12.08,12.08,0,0,1,218.08,668.24Z"/><path class="cls-1" d="M268.84,660.11h-6v20h-3.9v-20h-6v-3.73h15.94Z"/><path class="cls-1" d="M318.07,656.38v23.73h-3.9V669.77h-9v10.34h-3.9V656.38h3.9V666h9v-9.66Z"/><path class="cls-1" d="M346.86,675.33H337l-1.59,4.78h-4.24l8.44-23.73h4.68l8.41,23.73h-4.2Zm-1.25-3.66-3.66-10.85-3.7,10.85Z"/><path class="cls-1" d="M363.54,668.24A12.08,12.08,0,0,1,376,655.94a11.46,11.46,0,0,1,11.36,8.58h-4.1a7.5,7.5,0,0,0-7.26-4.78,8.51,8.51,0,0,0,0,17,7.47,7.47,0,0,0,7.26-4.78h4.1A11.47,11.47,0,0,1,376,680.55,12.08,12.08,0,0,1,363.54,668.24Z"/><path class="cls-1" d="M414.16,680.11l-9.36-11.29v11.29h-3.9V656.38h3.9V667l9-10.61h4.65l-9.63,11.56,10,12.17Z"/><path class="cls-1" d="M445.39,675.33h-9.87l-1.59,4.78h-4.24l8.44-23.73h4.68l8.41,23.73H447Zm-1.25-3.66-3.66-10.85-3.7,10.85Z"/><path class="cls-1" d="M476.69,660.11h-6v20h-3.9v-20h-6v-3.73h15.94Z"/><path class="cls-1" d="M506.9,656.38v23.73H503V669.77h-9v10.34h-3.9V656.38H494V666h9v-9.66Z"/><path class="cls-1" d="M521,668.24a12.31,12.31,0,1,1,12.31,12.31A12.22,12.22,0,0,1,521,668.24Zm20.72,0a8.41,8.41,0,1,0-8.41,8.51A8.28,8.28,0,0,0,541.72,668.24Z"/><path class="cls-1" d="M576.68,656.38v23.73h-3.05l-10-16.1v16.1h-3.9V656.38h3.05l10,16.1v-16.1Z"/></g></g></svg>